<svg width="55" height="52" viewBox="0 0 55 52" fill="none" xmlns="http://www.w3.org/2000/svg">
<rect x="2.70483" y="4.5014" width="1.80328" height="22.057" fill="#37464E"/>
<ellipse cx="3.60656" cy="3.60114" rx="3.60656" ry="3.60114" fill="#12B1E3"/>
<rect x="50.4919" y="4.5014" width="1.80328" height="22.057" fill="#37464E"/>
<ellipse cx="51.3933" cy="3.60114" rx="3.60656" ry="3.60114" fill="#12B1E3"/>
<path d="M0 31.9601C0 16.7951 12.3122 4.5014 27.5 4.5014C42.6878 4.5014 55 16.7951 55 31.9601V43.6638C55 47.6416 51.7706 50.8661 47.7869 50.8661C31.9416 52.3969 23.0583 52.3588 7.21312 50.8661C3.22942 50.8661 0 47.6416 0 43.6638V31.9601Z" fill="#CDD6DA"/>
<path d="M6 31.6891C6 19.6492 15.7602 9.88893 27.8001 9.88893C39.84 9.88893 49.6002 19.6492 49.6002 31.6891V40.4856C49.6002 43.8652 46.8605 46.6049 43.4809 46.6049C31.2342 48.2117 24.3665 48.2203 12.1193 46.6049C8.73972 46.6049 6 43.8652 6 40.4856V31.6891Z" fill="#37464E"/>
<path d="M27.1798 35.2542C26.1058 34.5019 25.1264 34.3286 23.5408 34.9274C22.4302 35.3468 21.6619 36.3106 21.078 37.3236C20.2853 38.6989 18.9838 40.4037 17.5327 40.076C16.9198 39.9376 16.5026 38.7473 16.1529 37.7496C15.6975 36.4505 15.3567 35.478 14.8472 37.5795C14.1589 40.4189 14.2576 41.9267 15.7435 42.9107C16.8189 43.623 18.2067 43.6747 19.4904 43.4764C25.9387 42.4801 28.2679 39.1725 27.9167 36.4182C27.8566 35.9467 27.5753 35.5312 27.1798 35.2542Z" fill="#CDD6DA"/>
<path d="M28.7219 35.2542C29.7959 34.5019 30.7753 34.3286 32.3609 34.9274C33.4715 35.3468 34.2398 36.3106 34.8237 37.3236C35.6164 38.6989 36.9179 40.4037 38.369 40.076C38.9819 39.9376 39.3991 38.7473 39.7488 37.7496C40.2041 36.4505 40.545 35.478 41.0545 37.5795C41.7428 40.4189 41.644 41.9267 40.1582 42.9107C39.0828 43.623 37.6949 43.6747 36.4113 43.4764C29.963 42.4801 27.6338 39.1725 27.9849 36.4182C28.045 35.9467 28.3264 35.5312 28.7219 35.2542Z" fill="#CDD6DA"/>
<path d="M26.2258 24.7066C27.8362 24.2506 28.6692 24.3232 30.1056 24.7066V26.113C28.5491 25.6985 27.703 25.6798 26.2258 26.113V24.7066Z" fill="#CDD6DA"/>
<circle cx="19.3174" cy="25.6826" r="7.31744" fill="#12B1E3"/>
<circle cx="36.5828" cy="25.6826" r="7.31744" fill="#12B1E3"/>
</svg>
